<mxfile host="Electron" modified="2024-04-05T15:52:31.612Z" agent="Mozilla/5.0 (Windows NT 10.0; Win64; x64) AppleWebKit/537.36 (KHTML, like Gecko) draw.io/24.0.4 Chrome/120.0.6099.109 Electron/28.1.0 Safari/537.36" etag="1ShPrTFjpv-7rbp_BjuE" version="24.0.4" type="device">
  <diagram id="yN4uamWbjuZGDqm8cbg6" name="Страница 1">
    <mxGraphModel dx="1816" dy="582" grid="1" gridSize="10" guides="1" tooltips="1" connect="1" arrows="1" fold="1" page="1" pageScale="1" pageWidth="827" pageHeight="1169" math="0" shadow="0">
      <root>
        <mxCell id="0" />
        <mxCell id="1" parent="0" />
        <mxCell id="LEEe3PYRZzJLNCYXb-5_-1" value="TV" style="swimlane;fontStyle=1;align=center;verticalAlign=top;childLayout=stackLayout;horizontal=1;startSize=26;horizontalStack=0;resizeParent=1;resizeParentMax=0;resizeLast=0;collapsible=1;marginBottom=0;" parent="1" vertex="1">
          <mxGeometry x="360" y="120" width="200" height="156" as="geometry" />
        </mxCell>
        <mxCell id="LEEe3PYRZzJLNCYXb-5_-7" value="+TurnOn()" style="text;strokeColor=none;fillColor=none;align=left;verticalAlign=top;spacingLeft=4;spacingRight=4;overflow=hidden;rotatable=0;points=[[0,0.5],[1,0.5]];portConstraint=eastwest;" parent="LEEe3PYRZzJLNCYXb-5_-1" vertex="1">
          <mxGeometry y="26" width="200" height="26" as="geometry" />
        </mxCell>
        <mxCell id="LEEe3PYRZzJLNCYXb-5_-8" value="+TurnOff()" style="text;strokeColor=none;fillColor=none;align=left;verticalAlign=top;spacingLeft=4;spacingRight=4;overflow=hidden;rotatable=0;points=[[0,0.5],[1,0.5]];portConstraint=eastwest;" parent="LEEe3PYRZzJLNCYXb-5_-1" vertex="1">
          <mxGeometry y="52" width="200" height="26" as="geometry" />
        </mxCell>
        <mxCell id="LEEe3PYRZzJLNCYXb-5_-9" value="+IsTurnedOn():bool" style="text;strokeColor=none;fillColor=none;align=left;verticalAlign=top;spacingLeft=4;spacingRight=4;overflow=hidden;rotatable=0;points=[[0,0.5],[1,0.5]];portConstraint=eastwest;" parent="LEEe3PYRZzJLNCYXb-5_-1" vertex="1">
          <mxGeometry y="78" width="200" height="26" as="geometry" />
        </mxCell>
        <mxCell id="LEEe3PYRZzJLNCYXb-5_-10" value="+SelectChannel(channel:int)" style="text;strokeColor=none;fillColor=none;align=left;verticalAlign=top;spacingLeft=4;spacingRight=4;overflow=hidden;rotatable=0;points=[[0,0.5],[1,0.5]];portConstraint=eastwest;" parent="LEEe3PYRZzJLNCYXb-5_-1" vertex="1">
          <mxGeometry y="104" width="200" height="26" as="geometry" />
        </mxCell>
        <mxCell id="LEEe3PYRZzJLNCYXb-5_-11" value="+GetCurrentChannel():int" style="text;strokeColor=none;fillColor=none;align=left;verticalAlign=top;spacingLeft=4;spacingRight=4;overflow=hidden;rotatable=0;points=[[0,0.5],[1,0.5]];portConstraint=eastwest;" parent="LEEe3PYRZzJLNCYXb-5_-1" vertex="1">
          <mxGeometry y="130" width="200" height="26" as="geometry" />
        </mxCell>
        <mxCell id="LEEe3PYRZzJLNCYXb-5_-5" value="RemoteControl" style="swimlane;fontStyle=1;align=center;verticalAlign=top;childLayout=stackLayout;horizontal=1;startSize=26;horizontalStack=0;resizeParent=1;resizeParentMax=0;resizeLast=0;collapsible=1;marginBottom=0;" parent="1" vertex="1">
          <mxGeometry x="80" y="120" width="160" height="112" as="geometry" />
        </mxCell>
        <mxCell id="LEEe3PYRZzJLNCYXb-5_-12" value="+RemoteControl(tv:TV&amp;)" style="text;strokeColor=none;fillColor=none;align=left;verticalAlign=top;spacingLeft=4;spacingRight=4;overflow=hidden;rotatable=0;points=[[0,0.5],[1,0.5]];portConstraint=eastwest;" parent="LEEe3PYRZzJLNCYXb-5_-5" vertex="1">
          <mxGeometry y="26" width="160" height="26" as="geometry" />
        </mxCell>
        <mxCell id="LEEe3PYRZzJLNCYXb-5_-15" value="-HandleTurnOn()" style="text;strokeColor=none;fillColor=none;align=left;verticalAlign=top;spacingLeft=4;spacingRight=4;overflow=hidden;rotatable=0;points=[[0,0.5],[1,0.5]];portConstraint=eastwest;" parent="LEEe3PYRZzJLNCYXb-5_-5" vertex="1">
          <mxGeometry y="52" width="160" height="26" as="geometry" />
        </mxCell>
        <mxCell id="LEEe3PYRZzJLNCYXb-5_-13" value="" style="line;strokeWidth=1;fillColor=none;align=left;verticalAlign=middle;spacingTop=-1;spacingLeft=3;spacingRight=3;rotatable=0;labelPosition=right;points=[];portConstraint=eastwest;" parent="LEEe3PYRZzJLNCYXb-5_-5" vertex="1">
          <mxGeometry y="78" width="160" height="8" as="geometry" />
        </mxCell>
        <mxCell id="LEEe3PYRZzJLNCYXb-5_-6" value="-m_tv:TV&amp;" style="text;strokeColor=none;fillColor=none;align=left;verticalAlign=top;spacingLeft=4;spacingRight=4;overflow=hidden;rotatable=0;points=[[0,0.5],[1,0.5]];portConstraint=eastwest;" parent="LEEe3PYRZzJLNCYXb-5_-5" vertex="1">
          <mxGeometry y="86" width="160" height="26" as="geometry" />
        </mxCell>
        <mxCell id="LEEe3PYRZzJLNCYXb-5_-14" value="" style="endArrow=diamondThin;endFill=0;endSize=24;html=1;" parent="1" source="LEEe3PYRZzJLNCYXb-5_-1" target="LEEe3PYRZzJLNCYXb-5_-5" edge="1">
          <mxGeometry width="160" relative="1" as="geometry">
            <mxPoint x="50" y="410" as="sourcePoint" />
            <mxPoint x="210" y="410" as="targetPoint" />
          </mxGeometry>
        </mxCell>
        <mxCell id="LEEe3PYRZzJLNCYXb-5_-17" value="&lt;div style=&quot;text-align: left&quot;&gt;&lt;span&gt;void RemoteControl::HandleTurnOn()&lt;/span&gt;&lt;/div&gt;&lt;div style=&quot;text-align: left&quot;&gt;&lt;span&gt;{&lt;/span&gt;&lt;/div&gt;&lt;div style=&quot;text-align: left&quot;&gt;&lt;span&gt;&amp;nbsp; m_tv.TurnOn()&lt;/span&gt;&lt;/div&gt;&lt;div style=&quot;text-align: left&quot;&gt;&lt;span&gt;}&lt;/span&gt;&lt;/div&gt;" style="shape=note;whiteSpace=wrap;html=1;backgroundOutline=1;darkOpacity=0.05;size=19;" parent="1" vertex="1">
          <mxGeometry x="70" y="300" width="240" height="100" as="geometry" />
        </mxCell>
        <mxCell id="LEEe3PYRZzJLNCYXb-5_-18" style="edgeStyle=orthogonalEdgeStyle;rounded=0;orthogonalLoop=1;jettySize=auto;html=1;" parent="1" source="LEEe3PYRZzJLNCYXb-5_-15" target="LEEe3PYRZzJLNCYXb-5_-17" edge="1">
          <mxGeometry relative="1" as="geometry" />
        </mxCell>
        <mxCell id="s31DPwUx9RCKBZJJSV05-1" value="Person" style="swimlane;fontStyle=1;align=center;verticalAlign=top;childLayout=stackLayout;horizontal=1;startSize=26;horizontalStack=0;resizeParent=1;resizeParentMax=0;resizeLast=0;collapsible=1;marginBottom=0;" parent="1" vertex="1">
          <mxGeometry x="400" y="400" width="160" height="52" as="geometry" />
        </mxCell>
        <mxCell id="s31DPwUx9RCKBZJJSV05-5" value="Student" style="swimlane;fontStyle=1;align=center;verticalAlign=top;childLayout=stackLayout;horizontal=1;startSize=26;horizontalStack=0;resizeParent=1;resizeParentMax=0;resizeLast=0;collapsible=1;marginBottom=0;" parent="1" vertex="1">
          <mxGeometry x="300" y="520" width="160" height="52" as="geometry" />
        </mxCell>
        <mxCell id="s31DPwUx9RCKBZJJSV05-6" value="Worker" style="swimlane;fontStyle=1;align=center;verticalAlign=top;childLayout=stackLayout;horizontal=1;startSize=26;horizontalStack=0;resizeParent=1;resizeParentMax=0;resizeLast=0;collapsible=1;marginBottom=0;" parent="1" vertex="1">
          <mxGeometry x="500" y="520" width="160" height="52" as="geometry" />
        </mxCell>
        <mxCell id="s31DPwUx9RCKBZJJSV05-7" value="Extends" style="endArrow=block;endSize=16;endFill=0;html=1;" parent="1" source="s31DPwUx9RCKBZJJSV05-5" target="s31DPwUx9RCKBZJJSV05-1" edge="1">
          <mxGeometry width="160" relative="1" as="geometry">
            <mxPoint x="350" y="480" as="sourcePoint" />
            <mxPoint x="510" y="480" as="targetPoint" />
          </mxGeometry>
        </mxCell>
        <mxCell id="s31DPwUx9RCKBZJJSV05-8" value="Extends" style="endArrow=block;endSize=16;endFill=0;html=1;" parent="1" source="s31DPwUx9RCKBZJJSV05-6" target="s31DPwUx9RCKBZJJSV05-1" edge="1">
          <mxGeometry width="160" relative="1" as="geometry">
            <mxPoint x="350" y="480" as="sourcePoint" />
            <mxPoint x="510" y="480" as="targetPoint" />
          </mxGeometry>
        </mxCell>
        <mxCell id="s31DPwUx9RCKBZJJSV05-9" value="Shape" style="swimlane;fontStyle=1;align=center;verticalAlign=top;childLayout=stackLayout;horizontal=1;startSize=26;horizontalStack=0;resizeParent=1;resizeParentMax=0;resizeLast=0;collapsible=1;marginBottom=0;" parent="1" vertex="1">
          <mxGeometry x="80" y="680" width="80" height="52" as="geometry" />
        </mxCell>
        <mxCell id="s31DPwUx9RCKBZJJSV05-10" value="Shape2D" style="swimlane;fontStyle=1;align=center;verticalAlign=top;childLayout=stackLayout;horizontal=1;startSize=26;horizontalStack=0;resizeParent=1;resizeParentMax=0;resizeLast=0;collapsible=1;marginBottom=0;" parent="1" vertex="1">
          <mxGeometry x="-40" y="780" width="120" height="52" as="geometry" />
        </mxCell>
        <mxCell id="s31DPwUx9RCKBZJJSV05-11" value="Shape3D" style="swimlane;fontStyle=1;align=center;verticalAlign=top;childLayout=stackLayout;horizontal=1;startSize=26;horizontalStack=0;resizeParent=1;resizeParentMax=0;resizeLast=0;collapsible=1;marginBottom=0;" parent="1" vertex="1">
          <mxGeometry x="160" y="780" width="120" height="52" as="geometry" />
        </mxCell>
        <mxCell id="s31DPwUx9RCKBZJJSV05-12" value="Circle" style="swimlane;fontStyle=1;align=center;verticalAlign=top;childLayout=stackLayout;horizontal=1;startSize=26;horizontalStack=0;resizeParent=1;resizeParentMax=0;resizeLast=0;collapsible=1;marginBottom=0;" parent="1" vertex="1">
          <mxGeometry x="-100" y="880" width="100" height="52" as="geometry" />
        </mxCell>
        <mxCell id="s31DPwUx9RCKBZJJSV05-13" value="Triangle" style="swimlane;fontStyle=1;align=center;verticalAlign=top;childLayout=stackLayout;horizontal=1;startSize=26;horizontalStack=0;resizeParent=1;resizeParentMax=0;resizeLast=0;collapsible=1;marginBottom=0;" parent="1" vertex="1">
          <mxGeometry x="10" y="880" width="100" height="52" as="geometry" />
        </mxCell>
        <mxCell id="s31DPwUx9RCKBZJJSV05-14" value="Cube" style="swimlane;fontStyle=1;align=center;verticalAlign=top;childLayout=stackLayout;horizontal=1;startSize=26;horizontalStack=0;resizeParent=1;resizeParentMax=0;resizeLast=0;collapsible=1;marginBottom=0;" parent="1" vertex="1">
          <mxGeometry x="130" y="880" width="100" height="52" as="geometry" />
        </mxCell>
        <mxCell id="s31DPwUx9RCKBZJJSV05-15" value="Sphere" style="swimlane;fontStyle=1;align=center;verticalAlign=top;childLayout=stackLayout;horizontal=1;startSize=26;horizontalStack=0;resizeParent=1;resizeParentMax=0;resizeLast=0;collapsible=1;marginBottom=0;" parent="1" vertex="1">
          <mxGeometry x="240" y="880" width="100" height="52" as="geometry" />
        </mxCell>
        <mxCell id="s31DPwUx9RCKBZJJSV05-16" value="" style="endArrow=block;endSize=16;endFill=0;html=1;" parent="1" source="s31DPwUx9RCKBZJJSV05-10" target="s31DPwUx9RCKBZJJSV05-9" edge="1">
          <mxGeometry width="160" relative="1" as="geometry">
            <mxPoint y="750" as="sourcePoint" />
            <mxPoint x="160" y="750" as="targetPoint" />
          </mxGeometry>
        </mxCell>
        <mxCell id="s31DPwUx9RCKBZJJSV05-17" value="" style="endArrow=block;endSize=16;endFill=0;html=1;" parent="1" source="s31DPwUx9RCKBZJJSV05-11" target="s31DPwUx9RCKBZJJSV05-9" edge="1">
          <mxGeometry width="160" relative="1" as="geometry">
            <mxPoint y="750" as="sourcePoint" />
            <mxPoint x="160" y="750" as="targetPoint" />
          </mxGeometry>
        </mxCell>
        <mxCell id="s31DPwUx9RCKBZJJSV05-18" value="" style="endArrow=block;endSize=16;endFill=0;html=1;" parent="1" source="s31DPwUx9RCKBZJJSV05-14" target="s31DPwUx9RCKBZJJSV05-11" edge="1">
          <mxGeometry width="160" relative="1" as="geometry">
            <mxPoint x="204" y="790" as="sourcePoint" />
            <mxPoint x="120" y="820" as="targetPoint" />
          </mxGeometry>
        </mxCell>
        <mxCell id="s31DPwUx9RCKBZJJSV05-19" value="" style="endArrow=block;endSize=16;endFill=0;html=1;" parent="1" source="s31DPwUx9RCKBZJJSV05-15" target="s31DPwUx9RCKBZJJSV05-11" edge="1">
          <mxGeometry width="160" relative="1" as="geometry">
            <mxPoint x="204" y="790" as="sourcePoint" />
            <mxPoint x="120" y="820" as="targetPoint" />
          </mxGeometry>
        </mxCell>
        <mxCell id="s31DPwUx9RCKBZJJSV05-20" value="" style="endArrow=block;endSize=16;endFill=0;html=1;" parent="1" source="s31DPwUx9RCKBZJJSV05-13" target="s31DPwUx9RCKBZJJSV05-10" edge="1">
          <mxGeometry width="160" relative="1" as="geometry">
            <mxPoint x="113.59999999999997" y="890" as="sourcePoint" />
            <mxPoint x="80.00000000000006" y="842" as="targetPoint" />
          </mxGeometry>
        </mxCell>
        <mxCell id="s31DPwUx9RCKBZJJSV05-21" value="" style="endArrow=block;endSize=16;endFill=0;html=1;" parent="1" source="s31DPwUx9RCKBZJJSV05-12" target="s31DPwUx9RCKBZJJSV05-10" edge="1">
          <mxGeometry width="160" relative="1" as="geometry">
            <mxPoint x="113.59999999999997" y="890" as="sourcePoint" />
            <mxPoint x="80.00000000000006" y="842" as="targetPoint" />
          </mxGeometry>
        </mxCell>
        <mxCell id="Q1-EeQ-NqZ19hB_-HoZO-5" value="ShapeReader" style="swimlane;fontStyle=1;align=center;verticalAlign=top;childLayout=stackLayout;horizontal=1;startSize=26;horizontalStack=0;resizeParent=1;resizeParentMax=0;resizeLast=0;collapsible=1;marginBottom=0;whiteSpace=wrap;html=1;" vertex="1" parent="1">
          <mxGeometry x="-680" y="480" width="160" height="52" as="geometry" />
        </mxCell>
        <mxCell id="Q1-EeQ-NqZ19hB_-HoZO-6" value="+ReadNextShape():Shape" style="text;strokeColor=none;fillColor=none;align=left;verticalAlign=top;spacingLeft=4;spacingRight=4;overflow=hidden;rotatable=0;points=[[0,0.5],[1,0.5]];portConstraint=eastwest;whiteSpace=wrap;html=1;" vertex="1" parent="Q1-EeQ-NqZ19hB_-HoZO-5">
          <mxGeometry y="26" width="160" height="26" as="geometry" />
        </mxCell>
        <mxCell id="Q1-EeQ-NqZ19hB_-HoZO-9" value="Shape" style="swimlane;fontStyle=1;align=center;verticalAlign=top;childLayout=stackLayout;horizontal=1;startSize=26;horizontalStack=0;resizeParent=1;resizeParentMax=0;resizeLast=0;collapsible=1;marginBottom=0;whiteSpace=wrap;html=1;" vertex="1" parent="1">
          <mxGeometry x="-360" y="480" width="160" height="52" as="geometry" />
        </mxCell>
        <mxCell id="Q1-EeQ-NqZ19hB_-HoZO-13" value="Return" style="endArrow=open;endSize=12;dashed=1;html=1;rounded=0;" edge="1" parent="1" source="Q1-EeQ-NqZ19hB_-HoZO-5" target="Q1-EeQ-NqZ19hB_-HoZO-9">
          <mxGeometry width="160" relative="1" as="geometry">
            <mxPoint x="-500" y="590" as="sourcePoint" />
            <mxPoint x="-340" y="590" as="targetPoint" />
          </mxGeometry>
        </mxCell>
        <mxCell id="Q1-EeQ-NqZ19hB_-HoZO-14" value="Foo" style="swimlane;fontStyle=1;align=center;verticalAlign=top;childLayout=stackLayout;horizontal=1;startSize=26;horizontalStack=0;resizeParent=1;resizeParentMax=0;resizeLast=0;collapsible=1;marginBottom=0;whiteSpace=wrap;html=1;" vertex="1" parent="1">
          <mxGeometry x="-680" y="240" width="110" height="52" as="geometry" />
        </mxCell>
        <mxCell id="Q1-EeQ-NqZ19hB_-HoZO-15" value="+CreateBar():Bar" style="text;strokeColor=none;fillColor=none;align=left;verticalAlign=top;spacingLeft=4;spacingRight=4;overflow=hidden;rotatable=0;points=[[0,0.5],[1,0.5]];portConstraint=eastwest;whiteSpace=wrap;html=1;" vertex="1" parent="Q1-EeQ-NqZ19hB_-HoZO-14">
          <mxGeometry y="26" width="110" height="26" as="geometry" />
        </mxCell>
        <mxCell id="Q1-EeQ-NqZ19hB_-HoZO-16" value="Bar" style="swimlane;fontStyle=1;align=center;verticalAlign=top;childLayout=stackLayout;horizontal=1;startSize=26;horizontalStack=0;resizeParent=1;resizeParentMax=0;resizeLast=0;collapsible=1;marginBottom=0;whiteSpace=wrap;html=1;" vertex="1" parent="1">
          <mxGeometry x="-500" y="240" width="160" height="52" as="geometry" />
        </mxCell>
        <mxCell id="Q1-EeQ-NqZ19hB_-HoZO-17" value="+DoSomething(baz:Baz)" style="text;strokeColor=none;fillColor=none;align=left;verticalAlign=top;spacingLeft=4;spacingRight=4;overflow=hidden;rotatable=0;points=[[0,0.5],[1,0.5]];portConstraint=eastwest;whiteSpace=wrap;html=1;" vertex="1" parent="Q1-EeQ-NqZ19hB_-HoZO-16">
          <mxGeometry y="26" width="160" height="26" as="geometry" />
        </mxCell>
        <mxCell id="Q1-EeQ-NqZ19hB_-HoZO-18" value="Baz" style="swimlane;fontStyle=1;align=center;verticalAlign=top;childLayout=stackLayout;horizontal=1;startSize=26;horizontalStack=0;resizeParent=1;resizeParentMax=0;resizeLast=0;collapsible=1;marginBottom=0;whiteSpace=wrap;html=1;" vertex="1" parent="1">
          <mxGeometry x="-270" y="240" width="80" height="52" as="geometry" />
        </mxCell>
        <mxCell id="Q1-EeQ-NqZ19hB_-HoZO-20" value="Return" style="endArrow=open;endSize=12;dashed=1;html=1;rounded=0;" edge="1" parent="1" source="Q1-EeQ-NqZ19hB_-HoZO-14" target="Q1-EeQ-NqZ19hB_-HoZO-16">
          <mxGeometry width="160" relative="1" as="geometry">
            <mxPoint x="-450" y="340" as="sourcePoint" />
            <mxPoint x="-290" y="340" as="targetPoint" />
          </mxGeometry>
        </mxCell>
        <mxCell id="Q1-EeQ-NqZ19hB_-HoZO-21" value="Use" style="endArrow=open;endSize=12;dashed=1;html=1;rounded=0;" edge="1" parent="1" source="Q1-EeQ-NqZ19hB_-HoZO-16" target="Q1-EeQ-NqZ19hB_-HoZO-18">
          <mxGeometry width="160" relative="1" as="geometry">
            <mxPoint x="-510" y="276" as="sourcePoint" />
            <mxPoint x="-410" y="276" as="targetPoint" />
          </mxGeometry>
        </mxCell>
      </root>
    </mxGraphModel>
  </diagram>
</mxfile>
